<svg preserveAspectRatio="none" width="100%" height="100%" overflow="visible" style="display: block;" viewBox="0 0 274.251 20.4688" fill="none" xmlns="http://www.w3.org/2000/svg">
<g id="A new bronze sacred">
<path id="Vector" d="M272.843 16.2096C272.585 16.2096 272.333 16.1275 272.087 15.9632C271.852 15.7989 271.735 15.5291 271.735 15.1536C271.735 14.8485 271.811 14.6021 271.963 14.4144C272.116 14.2267 272.292 14.0917 272.491 14.0096C272.691 13.9157 272.867 13.8688 273.019 13.8688C273.172 13.8688 273.342 13.904 273.53 13.9744C273.729 14.0448 273.899 14.168 274.04 14.344C274.181 14.5083 274.251 14.7547 274.251 15.0832C274.251 15.4117 274.111 15.6816 273.829 15.8928C273.547 16.104 273.219 16.2096 272.843 16.2096Z" fill="var(--fill-0, #544E44)"/>
<path id="Vector_2" d="M269.023 8.36C269.023 8.73547 268.906 9.10507 268.671 9.4688C268.437 9.8208 268.126 10.1611 267.739 10.4896C267.351 10.8064 266.923 11.1056 266.454 11.3872C265.984 11.6688 265.515 11.9152 265.046 12.1264C264.576 12.3376 264.148 12.5077 263.761 12.6368C263.667 13.0944 263.62 13.4992 263.62 13.8512C263.62 14.0741 263.673 14.2325 263.779 14.3264C263.884 14.4203 264.048 14.4672 264.271 14.4672C264.764 14.4672 265.286 14.3792 265.838 14.2032C266.389 14.0272 266.952 13.7984 267.527 13.5168C268.102 13.2352 268.654 12.936 269.182 12.6192C269.71 12.3024 270.191 12.0032 270.625 11.7216C271.071 11.44 271.44 11.2112 271.734 11.0352C272.027 10.8592 272.221 10.7712 272.315 10.7712C272.455 10.7712 272.561 10.8181 272.631 10.912C272.714 10.9941 272.755 11.0939 272.755 11.2112C272.755 11.3051 272.608 11.4869 272.315 11.7568C272.033 12.0267 271.652 12.3435 271.171 12.7072C270.69 13.0592 270.15 13.4229 269.551 13.7984C268.953 14.1739 268.331 14.5259 267.686 14.8544C267.052 15.1829 266.436 15.4469 265.838 15.6464C265.251 15.8459 264.723 15.9456 264.254 15.9456C263.644 15.9456 263.168 15.7168 262.828 15.2592C262.488 14.8016 262.318 14.0917 262.318 13.1296C262.318 12.4843 262.4 11.8331 262.564 11.176C262.74 10.5189 262.975 9.8912 263.268 9.2928C263.573 8.68267 263.908 8.14293 264.271 7.6736C264.647 7.19253 265.04 6.81707 265.451 6.5472C265.861 6.2656 266.26 6.1248 266.647 6.1248C267.387 6.1248 267.967 6.33013 268.39 6.7408C268.812 7.15147 269.023 7.6912 269.023 8.36ZM264.131 11.2816C264.494 11.0587 264.87 10.824 265.257 10.5776C265.644 10.3312 266.002 10.0789 266.331 9.8208C266.659 9.56267 266.923 9.2928 267.123 9.0112C267.334 8.71787 267.439 8.41867 267.439 8.1136C267.439 7.67947 267.205 7.4624 266.735 7.4624C266.442 7.4624 266.131 7.65013 265.803 8.0256C265.486 8.38933 265.181 8.86453 264.887 9.4512C264.594 10.0379 264.342 10.648 264.131 11.2816Z" fill="var(--fill-0, #544E44)"/>
<path id="Vector_3" d="M258.651 15.4176C258.64 15.6053 258.563 15.7579 258.423 15.8752C258.282 15.9925 258.118 16.0512 257.93 16.0512C257.719 16.0512 257.543 15.9808 257.402 15.84C257.261 15.6992 257.191 15.4821 257.191 15.1888C257.191 14.4261 257.226 13.5989 257.296 12.7072C257.367 11.8037 257.455 10.912 257.56 10.032C257.666 9.14027 257.771 8.31893 257.877 7.568C257.49 8.11947 257.067 8.7296 256.61 9.3984C256.164 10.0672 255.706 10.7301 255.237 11.3872C254.768 12.0443 254.31 12.6485 253.864 13.2C253.418 13.7397 253.014 14.1797 252.65 14.52C252.286 14.8485 251.987 15.0128 251.752 15.0128C251.318 15.0128 250.943 14.8427 250.626 14.5024C250.309 14.1504 250.151 13.7104 250.151 13.1824C250.151 12.9712 250.174 12.6837 250.221 12.32C250.268 11.9445 250.321 11.5515 250.379 11.1408C250.438 10.7301 250.491 10.3488 250.538 9.9968C250.585 9.63307 250.608 9.3632 250.608 9.1872C250.608 9.02293 250.591 8.88213 250.555 8.7648C250.532 8.63573 250.473 8.5712 250.379 8.5712C250.239 8.5712 250.045 8.7296 249.799 9.0464C249.552 9.35147 249.276 9.74453 248.971 10.2256C248.678 10.7067 248.373 11.2171 248.056 11.7568C247.751 12.2965 247.464 12.8069 247.194 13.288C246.924 13.7573 246.695 14.1269 246.507 14.3968C246.355 14.6549 246.214 14.8427 246.085 14.96C245.956 15.0773 245.798 15.136 245.61 15.136C245.387 15.136 245.182 15.0187 244.994 14.784C244.818 14.5493 244.73 14.2619 244.73 13.9216C244.73 13.7221 244.765 13.4112 244.835 12.9888C244.906 12.5547 244.994 12.0795 245.099 11.5632C245.217 11.0469 245.328 10.5424 245.434 10.0496C245.551 9.54507 245.651 9.1168 245.733 8.7648C245.827 8.36587 245.944 8.096 246.085 7.9552C246.226 7.8144 246.378 7.744 246.543 7.744C246.766 7.744 246.942 7.82613 247.071 7.9904C247.211 8.14293 247.282 8.38347 247.282 8.712C247.282 8.77067 247.247 8.92907 247.176 9.1872C247.106 9.4336 247.018 9.73867 246.912 10.1024C246.818 10.4544 246.713 10.824 246.595 11.2112C246.49 11.5984 246.402 11.9563 246.331 12.2848C246.59 11.8507 246.859 11.3813 247.141 10.8768C247.434 10.3723 247.728 9.8736 248.021 9.3808C248.314 8.87627 248.608 8.41867 248.901 8.008C249.194 7.5856 249.482 7.2512 249.763 7.0048C250.045 6.7584 250.315 6.6352 250.573 6.6352C250.878 6.6352 251.16 6.72907 251.418 6.9168C251.688 7.10453 251.905 7.3568 252.069 7.6736C252.233 7.9904 252.315 8.3424 252.315 8.7296C252.315 8.99947 252.268 9.3808 252.175 9.8736C252.081 10.3547 251.981 10.8768 251.875 11.44C251.782 12.0032 251.723 12.5371 251.699 13.0416C251.699 13.1589 251.735 13.2176 251.805 13.2176C251.864 13.2176 251.934 13.1765 252.016 13.0944C252.356 12.7189 252.732 12.2672 253.143 11.7392C253.553 11.1995 253.97 10.6304 254.392 10.032C254.826 9.4336 255.255 8.84693 255.677 8.272C256.099 7.68533 256.492 7.15733 256.856 6.688C257.232 6.20693 257.56 5.8256 257.842 5.544C258.135 5.2624 258.364 5.1216 258.528 5.1216C258.88 5.1216 259.15 5.22133 259.338 5.4208C259.526 5.62027 259.619 5.95467 259.619 6.424C259.619 6.79947 259.59 7.2864 259.531 7.8848C259.484 8.4832 259.42 9.1344 259.338 9.8384C259.267 10.5424 259.185 11.2523 259.091 11.968C259.009 12.672 258.927 13.3291 258.845 13.9392C258.763 14.5376 258.698 15.0304 258.651 15.4176Z" fill="var(--fill-0, #544E44)"/>
<path id="Vector_4" d="M222.914 16.7376C222.656 16.7376 222.457 16.6613 222.316 16.5088C222.175 16.368 222.105 16.0101 222.105 15.4352C222.105 14.9072 222.198 14.2208 222.386 13.376C222.574 12.5195 222.826 11.5691 223.143 10.5248C223.46 9.48053 223.818 8.40107 224.217 7.2864C224.616 6.16 225.032 5.05707 225.466 3.9776C225.912 2.8864 226.34 1.88907 226.751 0.9856C226.904 0.657067 227.062 0.428266 227.226 0.299199C227.39 0.170133 227.584 0.105599 227.807 0.105599C227.96 0.105599 228.089 0.152533 228.194 0.2464C228.312 0.328533 228.37 0.469333 228.37 0.6688C228.37 0.7392 228.294 0.967999 228.141 1.3552C228.001 1.7424 227.801 2.2528 227.543 2.8864C227.297 3.52 227.021 4.22987 226.716 5.016C226.411 5.80213 226.1 6.62933 225.783 7.4976C225.466 8.36587 225.167 9.24 224.885 10.12C224.604 10.9883 224.363 11.8213 224.164 12.6192C223.964 13.4171 223.829 14.1328 223.759 14.7664C224.041 14.4261 224.363 13.992 224.727 13.464C225.091 12.936 225.478 12.3669 225.889 11.7568C226.299 11.1467 226.716 10.5424 227.138 9.944C227.561 9.3456 227.977 8.8 228.388 8.3072C228.798 7.8144 229.18 7.42133 229.532 7.128C229.896 6.82293 230.212 6.6704 230.482 6.6704C230.928 6.6704 231.286 6.8112 231.556 7.0928C231.837 7.36267 231.978 7.80853 231.978 8.4304C231.978 8.7824 231.908 9.2048 231.767 9.6976C231.638 10.1904 231.485 10.7067 231.309 11.2464C231.133 11.7861 230.975 12.3024 230.834 12.7952C230.705 13.288 230.641 13.7104 230.641 14.0624C230.641 14.5435 230.822 14.784 231.186 14.784C231.749 14.784 232.313 14.6608 232.876 14.4144C233.451 14.168 233.996 13.8629 234.513 13.4992C235.029 13.1237 235.504 12.7483 235.938 12.3728C236.372 11.9856 236.742 11.6571 237.047 11.3872C237.376 11.0939 237.651 10.9472 237.874 10.9472C238.156 10.9472 238.297 11.0939 238.297 11.3872C238.297 11.4693 238.279 11.5632 238.244 11.6688C238.209 11.7744 238.115 11.9093 237.962 12.0736C237.774 12.2848 237.505 12.5605 237.153 12.9008C236.812 13.2411 236.413 13.6048 235.956 13.992C235.51 14.3792 235.023 14.7429 234.495 15.0832C233.979 15.4235 233.445 15.7051 232.893 15.928C232.354 16.1392 231.826 16.2448 231.309 16.2448C230.605 16.2448 230.06 16.0453 229.673 15.6464C229.297 15.2357 229.109 14.6725 229.109 13.9568C229.109 13.5109 229.18 12.9712 229.321 12.3376C229.461 11.704 229.637 11.0352 229.849 10.3312C230.072 9.61547 230.294 8.91733 230.517 8.2368C230.142 8.49493 229.731 8.88213 229.285 9.3984C228.851 9.90293 228.394 10.4779 227.913 11.1232C227.432 11.7568 226.95 12.4021 226.469 13.0592C226 13.7163 225.542 14.3264 225.097 14.8896C224.662 15.4411 224.258 15.8869 223.882 16.2272C223.507 16.5675 223.184 16.7376 222.914 16.7376Z" fill="var(--fill-0, #544E44)"/>
<path id="Vector_5" d="M212.721 10.3136C212.404 10.2901 212.257 10.0848 212.281 9.6976C212.292 9.60373 212.357 9.49227 212.474 9.3632C212.592 9.2224 212.727 9.14613 212.879 9.1344C213.243 9.0992 213.689 9.0464 214.217 8.976C214.756 8.89387 215.349 8.8 215.994 8.6944C216.112 8.11947 216.252 7.5152 216.417 6.8816C216.581 6.248 216.763 5.632 216.962 5.0336C217.162 4.42347 217.373 3.872 217.596 3.3792C217.819 2.8864 218.054 2.4992 218.3 2.2176C218.429 2.08853 218.546 2.00053 218.652 1.9536C218.758 1.89493 218.851 1.8656 218.934 1.8656C219.098 1.8656 219.227 1.936 219.321 2.0768C219.426 2.2176 219.479 2.376 219.479 2.552C219.479 2.64587 219.462 2.73973 219.426 2.8336C219.192 3.49067 218.939 4.30027 218.67 5.2624C218.4 6.22453 218.112 7.27467 217.807 8.4128C218.887 8.2368 219.966 8.04907 221.046 7.8496C222.125 7.65013 223.052 7.46827 223.826 7.304C224.049 7.21013 224.219 7.22773 224.337 7.3568C224.466 7.48587 224.53 7.61493 224.53 7.744C224.53 7.90827 224.483 8.03147 224.39 8.1136C224.307 8.19573 224.219 8.26613 224.126 8.3248L224.108 8.3424C223.873 8.43627 223.521 8.54773 223.052 8.6768C222.583 8.79413 222.043 8.9232 221.433 9.064C220.823 9.19307 220.171 9.32213 219.479 9.4512C218.799 9.58027 218.124 9.6976 217.455 9.8032C217.185 10.8357 216.91 11.8976 216.628 12.9888C216.358 14.0683 216.088 15.1301 215.818 16.1744C215.701 16.5968 215.566 16.8608 215.414 16.9664C215.273 17.0837 215.12 17.1424 214.956 17.1424C214.768 17.1424 214.604 17.072 214.463 16.9312C214.334 16.7904 214.316 16.5029 214.41 16.0688L215.695 10.0672C214.991 10.1728 214.369 10.2491 213.83 10.296C213.302 10.3429 212.932 10.3488 212.721 10.3136Z" fill="var(--fill-0, #544E44)"/>
<path id="Vector_6" d="M202.535 16.4032C202.09 16.4032 201.72 16.1979 201.427 15.7872C201.145 15.3648 201.004 14.8192 201.004 14.1504C201.004 13.5285 201.157 12.9125 201.462 12.3024C201.779 11.6923 202.195 11.1056 202.711 10.5424C203.228 9.9792 203.791 9.46293 204.401 8.9936C205.011 8.51253 205.621 8.096 206.231 7.744C206.853 7.392 207.422 7.11627 207.939 6.9168C208.455 6.71733 208.866 6.6176 209.171 6.6176C209.335 6.6176 209.47 6.6528 209.575 6.7232C209.681 6.78187 209.734 6.89333 209.734 7.0576C209.734 7.1632 209.693 7.26293 209.611 7.3568C209.622 7.3568 209.634 7.3568 209.646 7.3568C209.904 7.3568 210.033 7.50933 210.033 7.8144C210.033 7.92 209.992 8.13707 209.91 8.4656C209.828 8.7824 209.734 9.18133 209.628 9.6624C209.523 10.1435 209.429 10.6773 209.347 11.264C209.265 11.8389 209.223 12.4256 209.223 13.024C209.223 13.5285 209.417 13.7808 209.804 13.7808C210.238 13.7808 210.678 13.6811 211.124 13.4816C211.57 13.2821 212.004 13.0416 212.427 12.76C212.849 12.4667 213.236 12.1792 213.588 11.8976C213.94 11.6043 214.239 11.3579 214.486 11.1584C214.732 10.9589 214.908 10.8592 215.014 10.8592C215.108 10.8592 215.19 10.8885 215.26 10.9472C215.331 11.0059 215.366 11.0997 215.366 11.2288C215.366 11.3461 215.249 11.5573 215.014 11.8624C214.779 12.1675 214.468 12.5136 214.081 12.9008C213.694 13.288 213.26 13.6635 212.779 14.0272C212.298 14.3909 211.805 14.6901 211.3 14.9248C210.796 15.1595 210.315 15.2768 209.857 15.2768C209.505 15.2768 209.182 15.1712 208.889 14.96C208.607 14.7371 208.379 14.3616 208.203 13.8336C208.038 13.3056 207.956 12.5781 207.956 11.6512V11.2112C207.381 12.1616 206.777 13.0299 206.143 13.816C205.522 14.6021 204.9 15.2299 204.278 15.6992C203.668 16.1685 203.087 16.4032 202.535 16.4032ZM208.836 7.8848C208.778 7.90827 208.695 7.94347 208.59 7.9904C208.05 8.2368 207.487 8.54187 206.9 8.9056C206.325 9.26933 205.762 9.67413 205.211 10.12C204.671 10.5659 204.184 11.0293 203.75 11.5104C203.316 11.9915 202.97 12.4784 202.711 12.9712C202.453 13.464 202.324 13.9451 202.324 14.4144C202.324 14.5669 202.354 14.6843 202.412 14.7664C202.483 14.8485 202.6 14.8896 202.764 14.8896C202.999 14.8896 203.304 14.7429 203.679 14.4496C204.055 14.1445 204.466 13.7456 204.911 13.2528C205.369 12.76 205.827 12.2144 206.284 11.616C206.742 11.0176 207.176 10.4133 207.587 9.8032C208.009 9.19307 208.373 8.62987 208.678 8.1136C208.725 8.03147 208.778 7.9552 208.836 7.8848Z" fill="var(--fill-0, #544E44)"/>
<path id="Vector_7" d="M199.084 8.36C199.084 8.73547 198.967 9.10507 198.732 9.4688C198.498 9.8208 198.187 10.1611 197.799 10.4896C197.412 10.8064 196.984 11.1056 196.515 11.3872C196.045 11.6688 195.576 11.9152 195.107 12.1264C194.637 12.3376 194.209 12.5077 193.822 12.6368C193.728 13.0944 193.681 13.4992 193.681 13.8512C193.681 14.0741 193.734 14.2325 193.839 14.3264C193.945 14.4203 194.109 14.4672 194.332 14.4672C194.825 14.4672 195.347 14.3792 195.899 14.2032C196.45 14.0272 197.013 13.7984 197.588 13.5168C198.163 13.2352 198.715 12.936 199.243 12.6192C199.771 12.3024 200.252 12.0032 200.686 11.7216C201.132 11.44 201.501 11.2112 201.795 11.0352C202.088 10.8592 202.282 10.7712 202.376 10.7712C202.516 10.7712 202.622 10.8181 202.692 10.912C202.774 10.9941 202.815 11.0939 202.815 11.2112C202.815 11.3051 202.669 11.4869 202.376 11.7568C202.094 12.0267 201.713 12.3435 201.231 12.7072C200.75 13.0592 200.211 13.4229 199.612 13.7984C199.014 14.1739 198.392 14.5259 197.747 14.8544C197.113 15.1829 196.497 15.4469 195.899 15.6464C195.312 15.8459 194.784 15.9456 194.315 15.9456C193.705 15.9456 193.229 15.7168 192.889 15.2592C192.549 14.8016 192.379 14.0917 192.379 13.1296C192.379 12.4843 192.461 11.8331 192.625 11.176C192.801 10.5189 193.036 9.8912 193.329 9.2928C193.634 8.68267 193.969 8.14293 194.332 7.6736C194.708 7.19253 195.101 6.81707 195.511 6.5472C195.922 6.2656 196.321 6.1248 196.708 6.1248C197.447 6.1248 198.028 6.33013 198.451 6.7408C198.873 7.15147 199.084 7.6912 199.084 8.36ZM194.191 11.2816C194.555 11.0587 194.931 10.824 195.318 10.5776C195.705 10.3312 196.063 10.0789 196.391 9.8208C196.72 9.56267 196.984 9.2928 197.184 9.0112C197.395 8.71787 197.5 8.41867 197.5 8.1136C197.5 7.67947 197.266 7.4624 196.796 7.4624C196.503 7.4624 196.192 7.65013 195.863 8.0256C195.547 8.38933 195.242 8.86453 194.948 9.4512C194.655 10.0379 194.403 10.648 194.191 11.2816Z" fill="var(--fill-0, #544E44)"/>
<path id="Vector_8" d="M179.856 15.5408C179.516 15.5408 179.211 15.3472 178.941 14.96C178.671 14.5728 178.536 14.0741 178.536 13.464C178.536 12.7952 178.624 12.0795 178.8 11.3168C178.988 10.5541 179.217 9.77973 179.487 8.9936C179.757 8.19573 180.021 7.4272 180.279 6.688C180.337 6.53547 180.42 6.424 180.525 6.3536C180.643 6.27146 180.819 6.2304 181.053 6.2304C181.476 6.2304 181.687 6.43573 181.687 6.8464C181.687 6.94027 181.64 7.15147 181.546 7.48C181.452 7.80853 181.329 8.21333 181.176 8.6944C181.036 9.17547 180.889 9.6976 180.736 10.2608C180.584 10.8123 180.449 11.3696 180.332 11.9328C180.214 12.496 180.132 13.0181 180.085 13.4992C180.273 13.2997 180.484 12.9947 180.719 12.584C180.965 12.1733 181.229 11.7099 181.511 11.1936C181.792 10.6656 182.086 10.1376 182.391 9.6096C182.696 9.06987 183.001 8.57707 183.306 8.1312C183.623 7.6736 183.928 7.30987 184.221 7.04C184.526 6.7584 184.808 6.6176 185.066 6.6176C185.441 6.6176 185.758 6.73493 186.016 6.9696C186.286 7.19253 186.492 7.59147 186.632 8.1664C186.785 8.7296 186.861 9.52747 186.861 10.56C186.861 11.1115 186.914 11.6277 187.02 12.1088C187.137 12.5899 187.319 12.9771 187.565 13.2704C187.823 13.552 188.152 13.6928 188.551 13.6928C189.149 13.6928 189.683 13.5872 190.152 13.376C190.622 13.1531 191.027 12.9067 191.367 12.6368C191.719 12.3552 192.012 12.1088 192.247 11.8976C192.481 11.6747 192.663 11.5632 192.792 11.5632C193.062 11.5632 193.197 11.704 193.197 11.9856C193.197 12.1029 193.109 12.2907 192.933 12.5488C192.769 12.7952 192.534 13.0768 192.229 13.3936C191.936 13.6987 191.596 13.9979 191.208 14.2912C190.833 14.5728 190.428 14.8075 189.994 14.9952C189.572 15.1829 189.143 15.2768 188.709 15.2768C187.9 15.2768 187.237 15.1184 186.72 14.8016C186.216 14.4848 185.84 13.9627 185.594 13.2352C185.359 12.5077 185.242 11.5339 185.242 10.3136C185.242 9.6448 185.201 9.15787 185.119 8.8528C185.048 8.536 184.913 8.3248 184.714 8.2192C184.573 8.4656 184.391 8.8176 184.168 9.2752C183.945 9.72107 183.687 10.2197 183.394 10.7712C183.112 11.3227 182.813 11.88 182.496 12.4432C182.191 12.9947 181.88 13.5051 181.564 13.9744C181.247 14.4437 180.942 14.8251 180.648 15.1184C180.355 15.4 180.091 15.5408 179.856 15.5408Z" fill="var(--fill-0, #544E44)"/>
<path id="Vector_9" d="M176.075 8.36C176.075 8.73547 175.958 9.10507 175.723 9.4688C175.488 9.8208 175.177 10.1611 174.79 10.4896C174.403 10.8064 173.975 11.1056 173.505 11.3872C173.036 11.6688 172.567 11.9152 172.097 12.1264C171.628 12.3376 171.2 12.5077 170.813 12.6368C170.719 13.0944 170.672 13.4992 170.672 13.8512C170.672 14.0741 170.725 14.2325 170.83 14.3264C170.936 14.4203 171.1 14.4672 171.323 14.4672C171.816 14.4672 172.338 14.3792 172.889 14.2032C173.441 14.0272 174.004 13.7984 174.579 13.5168C175.154 13.2352 175.705 12.936 176.233 12.6192C176.761 12.3024 177.242 12.0032 177.677 11.7216C178.122 11.44 178.492 11.2112 178.785 11.0352C179.079 10.8592 179.272 10.7712 179.366 10.7712C179.507 10.7712 179.613 10.8181 179.683 10.912C179.765 10.9941 179.806 11.0939 179.806 11.2112C179.806 11.3051 179.659 11.4869 179.366 11.7568C179.085 12.0267 178.703 12.3435 178.222 12.7072C177.741 13.0592 177.201 13.4229 176.603 13.7984C176.005 14.1739 175.383 14.5259 174.737 14.8544C174.104 15.1829 173.488 15.4469 172.889 15.6464C172.303 15.8459 171.775 15.9456 171.305 15.9456C170.695 15.9456 170.22 15.7168 169.88 15.2592C169.539 14.8016 169.369 14.0917 169.369 13.1296C169.369 12.4843 169.451 11.8331 169.616 11.176C169.792 10.5189 170.026 9.8912 170.32 9.2928C170.625 8.68267 170.959 8.14293 171.323 7.6736C171.698 7.19253 172.091 6.81707 172.502 6.5472C172.913 6.2656 173.312 6.1248 173.699 6.1248C174.438 6.1248 175.019 6.33013 175.441 6.7408C175.864 7.15147 176.075 7.6912 176.075 8.36ZM171.182 11.2816C171.546 11.0587 171.921 10.824 172.309 10.5776C172.696 10.3312 173.054 10.0789 173.382 9.8208C173.711 9.56267 173.975 9.2928 174.174 9.0112C174.385 8.71787 174.491 8.41867 174.491 8.1136C174.491 7.67947 174.256 7.4624 173.787 7.4624C173.494 7.4624 173.183 7.65013 172.854 8.0256C172.537 8.38933 172.232 8.86453 171.939 9.4512C171.646 10.0379 171.393 10.648 171.182 11.2816Z" fill="var(--fill-0, #544E44)"/>
<path id="Vector_10" d="M159.94 15.9632C159.435 15.9632 159.077 15.8635 158.866 15.664C158.655 15.4645 158.549 15.1712 158.549 14.784C158.549 12.8363 158.901 10.8005 159.605 8.6768C160.309 6.54133 161.295 4.4 162.562 2.2528C162.726 1.98293 162.855 1.8128 162.949 1.7424C163.055 1.672 163.178 1.6368 163.319 1.6368C163.483 1.6368 163.63 1.69547 163.759 1.8128C163.888 1.93013 163.952 2.08853 163.952 2.288C163.952 2.3936 163.847 2.68107 163.636 3.1504C163.424 3.608 163.155 4.20053 162.826 4.928C162.498 5.65547 162.146 6.47093 161.77 7.3744C161.406 8.26613 161.06 9.19893 160.732 10.1728C160.403 11.1467 160.139 12.1147 159.94 13.0768C160.21 12.6779 160.532 12.2496 160.908 11.792C161.295 11.3344 161.706 10.8768 162.14 10.4192C162.574 9.9616 163.014 9.54507 163.46 9.1696C163.917 8.79413 164.357 8.49493 164.78 8.272C165.202 8.04907 165.589 7.9376 165.941 7.9376C166.399 7.9376 166.798 8.1312 167.138 8.5184C167.49 8.89387 167.666 9.46293 167.666 10.2256C167.666 10.8709 167.49 11.5339 167.138 12.2144C166.786 12.8832 166.27 13.5051 165.589 14.08C164.92 14.6432 164.111 15.1008 163.16 15.4528C162.21 15.7931 161.136 15.9632 159.94 15.9632ZM160.01 14.6256C160.984 14.6256 161.87 14.4613 162.668 14.1328C163.466 13.8043 164.146 13.3877 164.709 12.8832C165.284 12.3669 165.724 11.8331 166.029 11.2816C166.346 10.7184 166.504 10.208 166.504 9.7504C166.504 9.42187 166.393 9.2576 166.17 9.2576C165.9 9.2576 165.554 9.38667 165.132 9.6448C164.709 9.90293 164.252 10.2432 163.759 10.6656C163.278 11.088 162.797 11.5456 162.316 12.0384C161.835 12.5195 161.389 12.9888 160.978 13.4464C160.579 13.904 160.256 14.2971 160.01 14.6256Z" fill="var(--fill-0, #544E44)"/>
<path id="Vector_11" d="M147.834 8.36C147.834 8.73547 147.717 9.10507 147.482 9.4688C147.248 9.8208 146.937 10.1611 146.549 10.4896C146.162 10.8064 145.734 11.1056 145.265 11.3872C144.795 11.6688 144.326 11.9152 143.857 12.1264C143.387 12.3376 142.959 12.5077 142.572 12.6368C142.478 13.0944 142.431 13.4992 142.431 13.8512C142.431 14.0741 142.484 14.2325 142.589 14.3264C142.695 14.4203 142.859 14.4672 143.082 14.4672C143.575 14.4672 144.097 14.3792 144.649 14.2032C145.2 14.0272 145.763 13.7984 146.338 13.5168C146.913 13.2352 147.465 12.936 147.993 12.6192C148.521 12.3024 149.002 12.0032 149.436 11.7216C149.882 11.44 150.251 11.2112 150.545 11.0352C150.838 10.8592 151.032 10.7712 151.126 10.7712C151.266 10.7712 151.372 10.8181 151.442 10.912C151.524 10.9941 151.565 11.0939 151.565 11.2112C151.565 11.3051 151.419 11.4869 151.126 11.7568C150.844 12.0267 150.463 12.3435 149.981 12.7072C149.5 13.0592 148.961 13.4229 148.362 13.7984C147.764 14.1739 147.142 14.5259 146.497 14.8544C145.863 15.1829 145.247 15.4469 144.649 15.6464C144.062 15.8459 143.534 15.9456 143.065 15.9456C142.455 15.9456 141.979 15.7168 141.639 15.2592C141.299 14.8016 141.129 14.0917 141.129 13.1296C141.129 12.4843 141.211 11.8331 141.375 11.176C141.551 10.5189 141.786 9.8912 142.079 9.2928C142.384 8.68267 142.719 8.14293 143.082 7.6736C143.458 7.19253 143.851 6.81707 144.261 6.5472C144.672 6.2656 145.071 6.1248 145.458 6.1248C146.197 6.1248 146.778 6.33013 147.201 6.7408C147.623 7.15147 147.834 7.6912 147.834 8.36ZM142.941 11.2816C143.305 11.0587 143.681 10.824 144.068 10.5776C144.455 10.3312 144.813 10.0789 145.141 9.8208C145.47 9.56267 145.734 9.2928 145.934 9.0112C146.145 8.71787 146.25 8.41867 146.25 8.1136C146.25 7.67947 146.016 7.4624 145.546 7.4624C145.253 7.4624 144.942 7.65013 144.613 8.0256C144.297 8.38933 143.992 8.86453 143.698 9.4512C143.405 10.0379 143.153 10.648 142.941 11.2816Z" fill="var(--fill-0, #544E44)"/>
<path id="Vector_12" d="M133.955 16.28C133.768 16.28 133.609 16.2037 133.48 16.0512C133.351 15.8987 133.286 15.6875 133.286 15.4176C133.286 15.2181 133.328 14.8896 133.41 14.432C133.504 13.9627 133.603 13.4171 133.709 12.7952C133.826 12.1733 133.926 11.528 134.008 10.8592C134.09 10.1787 134.131 9.52747 134.131 8.9056C134.131 8.60053 134.208 8.3776 134.36 8.2368C134.524 8.08427 134.706 8.008 134.906 8.008C135.093 8.008 135.234 8.12533 135.328 8.36C135.422 8.59467 135.44 9.064 135.381 9.768C135.921 8.5712 136.513 7.60907 137.158 6.8816C137.816 6.1424 138.467 5.6144 139.112 5.2976C139.757 4.96907 140.338 4.8048 140.854 4.8048C141.195 4.8048 141.441 4.8752 141.594 5.016C141.758 5.14507 141.84 5.29173 141.84 5.456C141.84 5.67893 141.746 5.85493 141.558 5.984C141.382 6.10133 141.072 6.24213 140.626 6.4064C140.109 6.60587 139.634 6.84053 139.2 7.1104C138.778 7.36853 138.373 7.7088 137.986 8.1312C137.61 8.5536 137.241 9.09333 136.877 9.7504C136.513 10.3957 136.149 11.1936 135.786 12.144C135.422 13.0944 135.035 14.2384 134.624 15.576C134.554 15.8341 134.46 16.016 134.342 16.1216C134.237 16.2272 134.108 16.28 133.955 16.28Z" fill="var(--fill-0, #544E44)"/>
<path id="Vector_13" d="M121.687 16.4032C121.241 16.4032 120.872 16.1979 120.578 15.7872C120.297 15.3648 120.156 14.8192 120.156 14.1504C120.156 13.5285 120.308 12.9125 120.613 12.3024C120.93 11.6923 121.347 11.1056 121.863 10.5424C122.379 9.9792 122.943 9.46293 123.553 8.9936C124.163 8.51253 124.773 8.096 125.383 7.744C126.005 7.392 126.574 7.11627 127.09 6.9168C127.607 6.71733 128.017 6.6176 128.322 6.6176C128.487 6.6176 128.621 6.6528 128.727 6.7232C128.833 6.78187 128.885 6.89333 128.885 7.0576C128.885 7.1632 128.844 7.26293 128.762 7.3568C128.774 7.3568 128.786 7.3568 128.797 7.3568C129.056 7.3568 129.185 7.50933 129.185 7.8144C129.185 7.92 129.144 8.13707 129.061 8.4656C128.979 8.7824 128.885 9.18133 128.78 9.6624C128.674 10.1435 128.58 10.6773 128.498 11.264C128.416 11.8389 128.375 12.4256 128.375 13.024C128.375 13.5285 128.569 13.7808 128.956 13.7808C129.39 13.7808 129.83 13.6811 130.276 13.4816C130.722 13.2821 131.156 13.0416 131.578 12.76C132.001 12.4667 132.388 12.1792 132.74 11.8976C133.092 11.6043 133.391 11.3579 133.637 11.1584C133.884 10.9589 134.06 10.8592 134.165 10.8592C134.259 10.8592 134.341 10.8885 134.412 10.9472C134.482 11.0059 134.517 11.0997 134.517 11.2288C134.517 11.3461 134.4 11.5573 134.165 11.8624C133.931 12.1675 133.62 12.5136 133.233 12.9008C132.845 13.288 132.411 13.6635 131.93 14.0272C131.449 14.3909 130.956 14.6901 130.452 14.9248C129.947 15.1595 129.466 15.2768 129.009 15.2768C128.657 15.2768 128.334 15.1712 128.041 14.96C127.759 14.7371 127.53 14.3616 127.354 13.8336C127.19 13.3056 127.108 12.5781 127.108 11.6512V11.2112C126.533 12.1616 125.929 13.0299 125.295 13.816C124.673 14.6021 124.051 15.2299 123.429 15.6992C122.819 16.1685 122.239 16.4032 121.687 16.4032ZM127.988 7.8848C127.929 7.90827 127.847 7.94347 127.741 7.9904C127.202 8.2368 126.639 8.54187 126.052 8.9056C125.477 9.26933 124.914 9.67413 124.362 10.12C123.823 10.5659 123.336 11.0293 122.901 11.5104C122.467 11.9915 122.121 12.4784 121.863 12.9712C121.605 13.464 121.476 13.9451 121.476 14.4144C121.476 14.5669 121.505 14.6843 121.564 14.7664C121.634 14.8485 121.752 14.8896 121.916 14.8896C122.151 14.8896 122.456 14.7429 122.831 14.4496C123.207 14.1445 123.617 13.7456 124.063 13.2528C124.521 12.76 124.978 12.2144 125.436 11.616C125.893 11.0176 126.328 10.4133 126.738 9.8032C127.161 9.19307 127.524 8.62987 127.829 8.1136C127.876 8.03147 127.929 7.9552 127.988 7.8848Z" fill="var(--fill-0, #544E44)"/>
<path id="Vector_14" d="M107.499 16.368C107.3 16.368 107.129 16.28 106.989 16.104C106.848 15.928 106.777 15.6699 106.777 15.3296C106.777 14.9307 106.836 14.3616 106.953 13.6224C107.082 12.8832 107.27 11.9035 107.517 10.6832C107.2 11.4341 106.848 12.144 106.461 12.8128C106.085 13.4816 105.686 14.0272 105.264 14.4496C104.841 14.872 104.407 15.0832 103.961 15.0832C103.527 15.0832 103.14 14.9131 102.8 14.5728C102.471 14.2325 102.307 13.6341 102.307 12.7776C102.307 12.2965 102.348 11.7568 102.43 11.1584C102.512 10.5483 102.618 9.944 102.747 9.3456C102.876 8.7472 103.005 8.21333 103.134 7.744C103.263 7.26293 103.381 6.91093 103.486 6.688C103.568 6.50027 103.65 6.37707 103.733 6.3184C103.815 6.248 103.926 6.2128 104.067 6.2128C104.231 6.2128 104.407 6.2832 104.595 6.424C104.783 6.5648 104.877 6.79947 104.877 7.128C104.877 7.21013 104.836 7.40373 104.753 7.7088C104.683 8.00213 104.589 8.36587 104.472 8.8C104.366 9.2224 104.255 9.68 104.137 10.1728C104.02 10.6656 103.92 11.1584 103.838 11.6512C103.768 12.144 103.733 12.5957 103.733 13.0064C103.733 13.2293 103.756 13.4112 103.803 13.552C103.85 13.6928 103.967 13.7632 104.155 13.7632C104.319 13.7632 104.525 13.5989 104.771 13.2704C105.029 12.9419 105.305 12.5077 105.598 11.968C105.903 11.4165 106.214 10.8064 106.531 10.1376C106.86 9.4688 107.176 8.7824 107.481 8.0784C107.798 7.3744 108.086 6.7056 108.344 6.072C108.438 5.8608 108.537 5.73173 108.643 5.6848C108.749 5.62613 108.866 5.5968 108.995 5.5968C109.206 5.5968 109.394 5.6848 109.558 5.8608C109.734 6.02507 109.822 6.24213 109.822 6.512C109.822 6.688 109.787 6.99307 109.717 7.4272C109.658 7.86133 109.57 8.37173 109.453 8.9584C109.347 9.53333 109.224 10.1435 109.083 10.7888C108.954 11.4341 108.825 12.0736 108.696 12.7072C108.567 13.3291 108.444 13.8981 108.326 14.4144C108.221 14.9307 108.133 15.3472 108.062 15.664C108.004 15.9573 107.921 16.1451 107.816 16.2272C107.722 16.3211 107.616 16.368 107.499 16.368Z" fill="var(--fill-0, #544E44)"/>
<path id="Vector_15" d="M95.431 16.1216C94.7387 16.1216 94.1931 15.8576 93.7942 15.3296C93.3952 14.8016 93.1958 14.1152 93.1958 13.2704C93.1958 12.9653 93.2368 12.6427 93.319 12.3024C93.4128 11.9504 93.5302 11.6336 93.671 11.352C93.5888 11.2699 93.5243 11.1584 93.4774 11.0176C93.4304 10.8651 93.407 10.6773 93.407 10.4544C93.407 9.76213 93.5243 9.12853 93.759 8.5536C93.9936 7.97867 94.3046 7.48 94.6918 7.0576C95.079 6.62347 95.5072 6.28907 95.9766 6.0544C96.4576 5.81973 96.9446 5.7024 97.4374 5.7024C98.247 5.7024 98.904 5.99573 99.4086 6.5824C99.9131 7.15733 100.165 8.03733 100.165 9.2224C100.165 9.84427 100.071 10.4779 99.8838 11.1232C99.7078 11.7685 99.4614 12.3904 99.1446 12.9888C98.8395 13.5872 98.4816 14.1211 98.071 14.5904C97.672 15.0597 97.2438 15.4352 96.7862 15.7168C96.3403 15.9867 95.8886 16.1216 95.431 16.1216ZM94.8326 10.7536C94.903 10.8475 94.9382 10.9707 94.9382 11.1232C94.9382 11.2992 94.903 11.4752 94.8326 11.6512C94.7739 11.8272 94.7094 12.0677 94.639 12.3728C94.5686 12.6779 94.5334 13.112 94.5334 13.6752C94.5334 14.2384 94.7563 14.52 95.2022 14.52C95.695 14.52 96.1526 14.3264 96.575 13.9392C96.9974 13.5403 97.3728 13.0299 97.7014 12.408C98.0299 11.7861 98.2822 11.1232 98.4582 10.4192C98.6459 9.70347 98.7398 9.0288 98.7398 8.3952C98.7398 7.98453 98.6635 7.69707 98.511 7.5328C98.3584 7.3568 98.0827 7.2688 97.6838 7.2688C97.2731 7.2688 96.8448 7.4096 96.399 7.6912C95.9648 7.96107 95.6011 8.33067 95.3078 8.8C95.0144 9.26933 94.8678 9.79733 94.8678 10.384C94.8678 10.5131 94.856 10.6363 94.8326 10.7536Z" fill="var(--fill-0, #544E44)"/>
<path id="Vector_16" d="M84.8274 20.4688C84.2408 20.4688 83.701 20.4277 83.2082 20.3456C82.7272 20.2752 82.252 20.1579 81.7826 19.9936C81.3133 19.8411 80.8029 19.6416 80.2514 19.3952C80.0872 19.3131 79.9405 19.2133 79.8114 19.096C79.6824 18.9904 79.6178 18.8672 79.6178 18.7264C79.6178 18.5504 79.7293 18.3627 79.9522 18.1632C80.1634 17.9755 80.3629 17.8816 80.5506 17.8816C80.7501 17.8816 80.9965 17.952 81.2898 18.0928C81.5949 18.2336 81.9469 18.3979 82.3458 18.5856C82.7448 18.7851 83.1848 18.9552 83.6658 19.096C84.1586 19.2368 84.6866 19.3072 85.2498 19.3072C85.86 19.3072 86.4349 19.0549 86.9746 18.5504C87.5144 18.0459 87.9544 17.3184 88.2946 16.368C88.6349 15.4293 88.805 14.2971 88.805 12.9712C88.805 12.5723 88.7933 12.1323 88.7698 11.6512C88.7581 11.1584 88.7346 10.6421 88.6994 10.1024C88.4178 10.7125 88.101 11.3168 87.749 11.9152C87.4088 12.5136 87.0509 13.0533 86.6754 13.5344C86.3117 14.0155 85.9304 14.4027 85.5314 14.696C85.1442 14.9776 84.7512 15.1184 84.3522 15.1184C83.8477 15.1184 83.484 14.9893 83.261 14.7312C83.0381 14.4731 82.9266 14.0741 82.9266 13.5344C82.9266 12.9712 82.9677 12.3611 83.0498 11.704C83.132 11.0469 83.2376 10.384 83.3666 9.7152C83.5074 9.03467 83.6717 8.38933 83.8594 7.7792C84.0472 7.16907 84.2466 6.64107 84.4578 6.1952C84.5752 5.96053 84.7512 5.8432 84.9858 5.8432C85.1501 5.8432 85.3085 5.9312 85.461 6.1072C85.6253 6.27147 85.7074 6.48853 85.7074 6.7584C85.7074 6.9696 85.6605 7.2688 85.5666 7.656C85.4728 8.0432 85.3554 8.4832 85.2146 8.976C85.0738 9.4688 84.933 9.98507 84.7922 10.5248C84.6514 11.0528 84.5341 11.5749 84.4402 12.0912C84.3464 12.5957 84.2994 13.0592 84.2994 13.4816C84.2994 13.6576 84.4168 13.7456 84.6514 13.7456C84.7805 13.7456 84.9624 13.6283 85.197 13.3936C85.4434 13.1472 85.7133 12.8304 86.0066 12.4432C86.3117 12.0443 86.6168 11.6101 86.9218 11.1408C87.2386 10.6597 87.5437 10.1845 87.837 9.7152C88.1304 9.23413 88.3826 8.79413 88.5938 8.3952C88.5821 8.30133 88.5762 8.21333 88.5762 8.1312C88.5762 8.04907 88.5762 7.9728 88.5762 7.9024C88.5762 7.32747 88.6349 6.9696 88.7522 6.8288C88.8813 6.67627 89.0456 6.6 89.245 6.6C89.5853 6.6 89.8258 6.67627 89.9666 6.8288C90.1074 6.98133 90.1778 7.24533 90.1778 7.6208C90.1778 7.7616 90.1602 7.91413 90.125 8.0784C90.0898 8.23093 90.0312 8.45387 89.949 8.7472C90.0429 9.67413 90.1192 10.5072 90.1778 11.2464C90.2482 11.9856 90.2834 12.7307 90.2834 13.4816C90.2834 14.9013 90.0546 16.1333 89.597 17.1776C89.1512 18.2219 88.5176 19.0315 87.6962 19.6064C86.8866 20.1813 85.9304 20.4688 84.8274 20.4688Z" fill="var(--fill-0, #544E44)"/>
<path id="Vector_17" d="M69.1263 16.8784C68.3637 16.8784 67.6597 16.6965 67.0143 16.3328C66.3807 15.9691 65.8058 15.4997 65.2895 14.9248C64.785 14.3499 64.3333 13.7339 63.9343 13.0768C63.5471 12.408 63.2127 11.7803 62.9311 11.1936C62.7317 12.144 62.5733 12.9125 62.4559 13.4992C62.3503 14.0859 62.2623 14.5317 62.1919 14.8368C62.1333 15.1419 62.0746 15.3472 62.0159 15.4528C61.9573 15.5584 61.881 15.6112 61.7871 15.6112C61.529 15.6112 61.2826 15.4704 61.0479 15.1888C60.8133 14.9072 60.6959 14.5435 60.6959 14.0976C60.6959 13.6283 60.7781 13.0064 60.9423 12.232C61.1066 11.4459 61.3237 10.5776 61.5935 9.6272C61.8751 8.66507 62.1978 7.6736 62.5615 6.6528C62.9253 5.62027 63.3007 4.61707 63.6879 3.6432C64.0869 2.6576 64.4858 1.76 64.8847 0.950399C65.0842 0.551466 65.2543 0.293333 65.3951 0.176C65.5477 0.0586664 65.7295 0 65.9407 0C66.281 0 66.4511 0.158399 66.4511 0.475199C66.4511 0.592533 66.4159 0.7216 66.3455 0.862399C66.2869 1.0032 66.2223 1.1616 66.1519 1.3376C65.9407 1.85387 65.7061 2.43467 65.4479 3.08C65.2015 3.72533 64.9493 4.4 64.6911 5.104C64.4447 5.808 64.2101 6.50613 63.9871 7.1984C63.7642 7.89067 63.5706 8.53013 63.4063 9.1168C63.9109 8.7648 64.5034 8.4128 65.1839 8.0608C65.8645 7.7088 66.5685 7.392 67.2959 7.1104C68.0234 6.81707 68.7098 6.5824 69.3551 6.4064C70.0005 6.2304 70.5343 6.1424 70.9567 6.1424C71.1797 6.1424 71.3498 6.2128 71.4671 6.3536C71.5962 6.48267 71.6607 6.62933 71.6607 6.7936C71.6607 6.92267 71.6197 7.05173 71.5375 7.1808C71.4671 7.29813 71.3146 7.40373 71.0799 7.4976C70.3055 7.76747 69.537 8.0432 68.7743 8.3248C68.0117 8.59467 67.2138 8.888 66.3807 9.2048C65.5594 9.50987 64.6618 9.8736 63.6879 10.296C63.993 10.8123 64.3509 11.3696 64.7615 11.968C65.1722 12.5547 65.6122 13.112 66.0815 13.64C66.5509 14.1563 67.0319 14.5845 67.5247 14.9248C68.0175 15.2533 68.5103 15.4176 69.0031 15.4176C69.6485 15.4176 70.2703 15.2827 70.8687 15.0128C71.4671 14.7429 72.0186 14.4144 72.5231 14.0272C73.0394 13.64 73.4911 13.2645 73.8783 12.9008C74.2655 12.5253 74.5706 12.232 74.7935 12.0208C74.9109 11.9152 75.0165 11.8448 75.1103 11.8096C75.2159 11.7627 75.3098 11.7392 75.3919 11.7392C75.5562 11.7392 75.6677 11.8272 75.7263 12.0032C75.7967 12.1675 75.7381 12.3493 75.5503 12.5488C75.4095 12.7131 75.1925 12.9653 74.8991 13.3056C74.6058 13.6459 74.2479 14.0213 73.8255 14.432C73.4149 14.8309 72.9573 15.2181 72.4527 15.5936C71.9599 15.9691 71.4261 16.2741 70.8511 16.5088C70.2879 16.7552 69.713 16.8784 69.1263 16.8784Z" fill="var(--fill-0, #544E44)"/>
<path id="Vector_18" d="M48.772 15.5408C48.4317 15.5408 48.1267 15.3472 47.8568 14.96C47.5869 14.5728 47.452 14.0741 47.452 13.464C47.452 12.7952 47.54 12.0795 47.716 11.3168C47.9037 10.5541 48.1325 9.77973 48.4024 8.9936C48.6723 8.19573 48.9363 7.4272 49.1944 6.688C49.2531 6.53547 49.3352 6.424 49.4408 6.3536C49.5581 6.27146 49.7341 6.2304 49.9688 6.2304C50.3912 6.2304 50.6024 6.43573 50.6024 6.8464C50.6024 6.94027 50.5555 7.15147 50.4616 7.48C50.3677 7.80853 50.2445 8.21333 50.092 8.6944C49.9512 9.17547 49.8045 9.6976 49.652 10.2608C49.4995 10.8123 49.3645 11.3696 49.2472 11.9328C49.1299 12.496 49.0477 13.0181 49.0008 13.4992C49.1885 13.2997 49.3997 12.9947 49.6344 12.584C49.8808 12.1733 50.1448 11.7099 50.4264 11.1936C50.708 10.6656 51.0013 10.1376 51.3064 9.6096C51.6115 9.06987 51.9165 8.57707 52.2216 8.1312C52.5384 7.6736 52.8435 7.30987 53.1368 7.04C53.4419 6.7584 53.7235 6.6176 53.9816 6.6176C54.3571 6.6176 54.6739 6.73493 54.932 6.9696C55.2019 7.19253 55.4072 7.59147 55.548 8.1664C55.7005 8.7296 55.7768 9.52747 55.7768 10.56C55.7768 11.1115 55.8296 11.6277 55.9352 12.1088C56.0525 12.5899 56.2344 12.9771 56.4808 13.2704C56.7389 13.552 57.0675 13.6928 57.4664 13.6928C58.0648 13.6928 58.5987 13.5872 59.068 13.376C59.5373 13.1531 59.9421 12.9067 60.2824 12.6368C60.6344 12.3552 60.9277 12.1088 61.1624 11.8976C61.3971 11.6747 61.5789 11.5632 61.708 11.5632C61.9779 11.5632 62.1128 11.704 62.1128 11.9856C62.1128 12.1029 62.0248 12.2907 61.8488 12.5488C61.6845 12.7952 61.4499 13.0768 61.1448 13.3936C60.8515 13.6987 60.5112 13.9979 60.124 14.2912C59.7485 14.5728 59.3437 14.8075 58.9096 14.9952C58.4872 15.1829 58.0589 15.2768 57.6248 15.2768C56.8152 15.2768 56.1523 15.1184 55.636 14.8016C55.1315 14.4848 54.756 13.9627 54.5096 13.2352C54.2749 12.5077 54.1576 11.5339 54.1576 10.3136C54.1576 9.6448 54.1165 9.15787 54.0344 8.8528C53.964 8.536 53.8291 8.3248 53.6296 8.2192C53.4888 8.4656 53.3069 8.8176 53.084 9.2752C52.8611 9.72107 52.6029 10.2197 52.3096 10.7712C52.028 11.3227 51.7288 11.88 51.412 12.4432C51.1069 12.9947 50.796 13.5051 50.4792 13.9744C50.1624 14.4437 49.8573 14.8251 49.564 15.1184C49.2707 15.4 49.0067 15.5408 48.772 15.5408Z" fill="var(--fill-0, #544E44)"/>
<path id="Vector_19" d="M43.2795 16.0336C43.0566 16.0336 42.8571 15.9515 42.6811 15.7872C42.5051 15.6112 42.4171 15.3413 42.4171 14.9776C42.4171 14.7195 42.4523 14.3616 42.5227 13.904C42.5931 13.4347 42.687 12.9243 42.8043 12.3728C42.9216 11.8213 43.0448 11.2757 43.1739 10.736C43.3147 10.1845 43.4555 9.69173 43.5963 9.2576C43.7371 8.82347 43.8603 8.5008 43.9659 8.2896C44.0598 8.12533 44.1478 8.01973 44.2299 7.9728C44.3238 7.92587 44.4118 7.9024 44.4939 7.9024C44.6582 7.9024 44.799 7.9552 44.9163 8.0608C45.0454 8.1664 45.1099 8.37173 45.1099 8.6768C45.1099 8.8528 45.0747 9.14613 45.0043 9.5568C44.9456 9.95573 44.8635 10.4251 44.7579 10.9648C44.664 11.4928 44.5584 12.0384 44.4411 12.6016C44.3355 13.1531 44.2299 13.6811 44.1243 14.1856C44.0187 14.6901 43.9366 15.1125 43.8779 15.4528C43.831 15.6405 43.7488 15.7872 43.6315 15.8928C43.5259 15.9867 43.4086 16.0336 43.2795 16.0336ZM45.0043 6.3008C44.7344 6.3008 44.4763 6.21867 44.2299 6.0544C43.9952 5.89013 43.8779 5.62613 43.8779 5.2624C43.8779 4.95733 43.9483 4.71093 44.0891 4.5232C44.2416 4.33547 44.4176 4.20053 44.6171 4.1184C44.8283 4.02453 45.0102 3.9776 45.1627 3.9776C45.3152 3.9776 45.4854 4.0128 45.6731 4.0832C45.8726 4.14187 46.0427 4.2592 46.1835 4.4352C46.3243 4.59947 46.3947 4.84587 46.3947 5.1744C46.3947 5.39733 46.3184 5.5968 46.1659 5.7728C46.0134 5.93707 45.8256 6.06613 45.6027 6.16C45.3915 6.25387 45.192 6.3008 45.0043 6.3008Z" fill="var(--fill-0, #544E44)"/>
<path id="Vector_20" d="M28.6283 16.7376C28.3701 16.7376 28.1707 16.6613 28.0299 16.5088C27.8891 16.368 27.8187 16.0101 27.8187 15.4352C27.8187 14.9072 27.9125 14.2208 28.1003 13.376C28.288 12.5195 28.5403 11.5691 28.8571 10.5248C29.1739 9.48053 29.5317 8.40107 29.9307 7.2864C30.3296 6.16 30.7461 5.05707 31.1803 3.9776C31.6261 2.8864 32.0544 1.88907 32.4651 0.9856C32.6176 0.657067 32.776 0.428266 32.9403 0.299199C33.1045 0.170133 33.2981 0.105599 33.5211 0.105599C33.6736 0.105599 33.8027 0.152533 33.9083 0.2464C34.0256 0.328533 34.0843 0.469333 34.0843 0.6688C34.0843 0.7392 34.008 0.967999 33.8555 1.3552C33.7147 1.7424 33.5152 2.2528 33.2571 2.8864C33.0107 3.52 32.7349 4.22987 32.4299 5.016C32.1248 5.80213 31.8139 6.62933 31.4971 7.4976C31.1803 8.36587 30.8811 9.24 30.5995 10.12C30.3179 10.9883 30.0773 11.8213 29.8779 12.6192C29.6784 13.4171 29.5435 14.1328 29.4731 14.7664C29.7547 14.4261 30.0773 13.992 30.4411 13.464C30.8048 12.936 31.192 12.3669 31.6027 11.7568C32.0133 11.1467 32.4299 10.5424 32.8523 9.944C33.2747 9.3456 33.6912 8.8 34.1019 8.3072C34.5125 7.8144 34.8939 7.42133 35.2459 7.128C35.6096 6.82293 35.9264 6.6704 36.1963 6.6704C36.6421 6.6704 37 6.8112 37.2699 7.0928C37.5515 7.36267 37.6923 7.80853 37.6923 8.4304C37.6923 8.7824 37.6219 9.2048 37.4811 9.6976C37.352 10.1904 37.1995 10.7067 37.0235 11.2464C36.8475 11.7861 36.6891 12.3024 36.5483 12.7952C36.4192 13.288 36.3547 13.7104 36.3547 14.0624C36.3547 14.5435 36.5365 14.784 36.9003 14.784C37.4635 14.784 38.0267 14.6608 38.5899 14.4144C39.1648 14.168 39.7104 13.8629 40.2267 13.4992C40.7429 13.1237 41.2181 12.7483 41.6523 12.3728C42.0864 11.9856 42.456 11.6571 42.7611 11.3872C43.0896 11.0939 43.3653 10.9472 43.5883 10.9472C43.8699 10.9472 44.0107 11.0939 44.0107 11.3872C44.0107 11.4693 43.9931 11.5632 43.9579 11.6688C43.9227 11.7744 43.8288 11.9093 43.6763 12.0736C43.4885 12.2848 43.2187 12.5605 42.8667 12.9008C42.5264 13.2411 42.1275 13.6048 41.6699 13.992C41.224 14.3792 40.7371 14.7429 40.2091 15.0832C39.6928 15.4235 39.1589 15.7051 38.6075 15.928C38.0677 16.1392 37.5397 16.2448 37.0235 16.2448C36.3195 16.2448 35.7739 16.0453 35.3867 15.6464C35.0112 15.2357 34.8235 14.6725 34.8235 13.9568C34.8235 13.5109 34.8939 12.9712 35.0347 12.3376C35.1755 11.704 35.3515 11.0352 35.5627 10.3312C35.7856 9.61547 36.0085 8.91733 36.2315 8.2368C35.856 8.49493 35.4453 8.88213 34.9995 9.3984C34.5653 9.90293 34.1077 10.4779 33.6267 11.1232C33.1456 11.7568 32.6645 12.4021 32.1835 13.0592C31.7141 13.7163 31.2565 14.3264 30.8107 14.8896C30.3765 15.4411 29.9717 15.8869 29.5963 16.2272C29.2208 16.5675 28.8981 16.7376 28.6283 16.7376Z" fill="var(--fill-0, #544E44)"/>
<path id="Vector_21" d="M18.4348 10.3136C18.118 10.2901 17.9713 10.0848 17.9948 9.6976C18.0065 9.60373 18.071 9.49227 18.1884 9.3632C18.3057 9.2224 18.4406 9.14613 18.5932 9.1344C18.9569 9.0992 19.4028 9.0464 19.9308 8.976C20.4705 8.89387 21.063 8.8 21.7084 8.6944C21.8257 8.11947 21.9665 7.5152 22.1308 6.8816C22.295 6.248 22.4769 5.632 22.6764 5.0336C22.8758 4.42347 23.087 3.872 23.31 3.3792C23.5329 2.8864 23.7676 2.4992 24.014 2.2176C24.143 2.08853 24.2604 2.00053 24.366 1.9536C24.4716 1.89493 24.5654 1.8656 24.6476 1.8656C24.8118 1.8656 24.9409 1.936 25.0348 2.0768C25.1404 2.2176 25.1932 2.376 25.1932 2.552C25.1932 2.64587 25.1756 2.73973 25.1404 2.8336C24.9057 3.49067 24.6534 4.30027 24.3836 5.2624C24.1137 6.22453 23.8262 7.27467 23.5212 8.4128C24.6006 8.2368 25.6801 8.04907 26.7596 7.8496C27.839 7.65013 28.766 7.46827 29.5404 7.304C29.7633 7.21013 29.9334 7.22773 30.0508 7.3568C30.1798 7.48587 30.2444 7.61493 30.2444 7.744C30.2444 7.90827 30.1974 8.03147 30.1036 8.1136C30.0214 8.19573 29.9334 8.26613 29.8396 8.3248L29.822 8.3424C29.5873 8.43627 29.2353 8.54773 28.766 8.6768C28.2966 8.79413 27.7569 8.9232 27.1468 9.064C26.5366 9.19307 25.8854 9.32213 25.1932 9.4512C24.5126 9.58027 23.838 9.6976 23.1692 9.8032C22.8993 10.8357 22.6236 11.8976 22.342 12.9888C22.0721 14.0683 21.8022 15.1301 21.5324 16.1744C21.415 16.5968 21.2801 16.8608 21.1276 16.9664C20.9868 17.0837 20.8342 17.1424 20.67 17.1424C20.4822 17.1424 20.318 17.072 20.1772 16.9312C20.0481 16.7904 20.0305 16.5029 20.1244 16.0688L21.4092 10.0672C20.7052 10.1728 20.0833 10.2491 19.5436 10.296C19.0156 10.3429 18.646 10.3488 18.4348 10.3136Z" fill="var(--fill-0, #544E44)"/>
<path id="Vector_22" d="M3.02723 5.808C2.52269 5.808 2.18242 5.7376 2.00642 5.5968C1.84216 5.456 1.76002 5.32107 1.76002 5.192C1.76002 5.00427 1.85389 4.83413 2.04163 4.6816C2.24109 4.52907 2.48163 4.42347 2.76323 4.3648C3.10349 4.2944 3.51416 4.224 3.99522 4.1536C4.48802 4.07147 4.99843 4.00107 5.52643 3.9424C6.05443 3.872 6.57069 3.8192 7.07523 3.784C7.57976 3.7488 8.01976 3.7312 8.39522 3.7312C8.88802 3.7312 9.26349 3.82507 9.52162 4.0128C9.79149 4.1888 9.92642 4.35307 9.92642 4.5056C9.92642 4.51733 9.92642 4.5408 9.92642 4.576C9.92642 4.66987 9.90883 4.752 9.87362 4.8224C9.83843 4.8928 9.72109 4.9632 9.52162 5.0336C9.33389 5.09227 9.01123 5.1568 8.55363 5.2272C8.10776 5.28587 7.47416 5.3504 6.65283 5.4208C6.48856 5.43253 6.30669 5.45013 6.10723 5.4736C6.06029 5.7904 5.98989 6.20693 5.89603 6.7232C5.80216 7.23947 5.69656 7.8144 5.57923 8.448C5.46189 9.0816 5.33869 9.7328 5.20963 10.4016C5.08056 11.0587 4.95149 11.6864 4.82242 12.2848C4.70509 12.8832 4.59949 13.4112 4.50563 13.8688C4.42349 14.3264 4.35896 14.6725 4.31203 14.9072C4.92216 14.8251 5.46189 14.7723 5.93123 14.7488C6.41229 14.7136 6.73496 14.696 6.89923 14.696C7.33336 14.696 7.55043 14.8603 7.55043 15.1888C7.55043 15.2827 7.35096 15.4176 6.95202 15.5936C6.55309 15.7696 6.04269 15.9515 5.42083 16.1392C4.79896 16.3269 4.15362 16.5029 3.48483 16.6672C2.93336 16.7963 2.38776 16.896 1.84802 16.9664C1.32002 17.0368 0.938691 17.072 0.704025 17.072C0.445891 17.072 0.264025 17.0251 0.158425 16.9312C0.0528248 16.8491 2.47955e-05 16.7259 2.47955e-05 16.5616C2.47955e-05 16.3973 0.0469581 16.2331 0.140825 16.0688C0.246425 15.9045 0.387225 15.7872 0.563225 15.7168C0.880025 15.5995 1.23202 15.4939 1.61922 15.4C2.00642 15.2944 2.39949 15.2005 2.79843 15.1184C2.79843 15.0597 2.79843 14.9893 2.79843 14.9072C2.79843 14.7429 2.82776 14.432 2.88643 13.9744C2.95682 13.5168 3.04483 12.9712 3.15042 12.3376C3.25603 11.6923 3.37336 11.0235 3.50243 10.3312C3.63149 9.6272 3.75469 8.9584 3.87203 8.3248C3.98936 7.67947 4.09496 7.12213 4.18883 6.6528C4.28269 6.17173 4.35309 5.84907 4.40002 5.6848C4.10669 5.72 3.84269 5.74933 3.60803 5.7728C3.37336 5.79627 3.17976 5.808 3.02723 5.808Z" fill="var(--fill-0, #544E44)"/>
</g>
</svg>
