<svg preserveAspectRatio="none" width="100%" height="100%" overflow="visible" style="display: block;" viewBox="0 0 84.48 85.9101" fill="none" xmlns="http://www.w3.org/2000/svg">
<g id="01">
<path id="Vector" d="M84.48 85.91L75.68 83.05V12.21L60.72 18.26L55.66 10.34L75.68 2.2L84.48 5.06V85.91Z" fill="var(--fill-0, #E4E4E1)"/>
<path id="Vector_2" d="M30.14 85.8C25.3 85.8 20.13 84.15 14.63 80.96C9.79003 78.21 6.05003 74.25 3.41003 69.08C1.10003 64.9 2.95639e-05 59.95 2.95639e-05 54.34V17.49C2.95639e-05 11.88 1.10003 7.59 3.41003 4.62C5.72003 1.54 9.02003 0 13.2 0C15.73 0 18.59 0.549999 21.78 1.65C27.39 3.52 32.01 6.27 35.42 9.9C40.81 15.73 43.56 22.88 43.56 31.57V68.42C43.56 74.03 42.46 78.32 40.26 81.07C37.84 84.26 34.43 85.8 30.14 85.8ZM26.4 77.22C28.6 77.22 30.36 76.56 31.68 75.24C33.77 73.26 34.76 70.07 34.76 65.56V41.69L8.80003 53.9C8.80003 57.97 9.02003 60.94 9.46003 62.92C10.45 67.43 12.76 70.95 16.39 73.48C19.69 75.9 22.99 77.22 26.4 77.22ZM8.80003 44.22L34.76 32.01C34.76 27.94 34.54 24.86 34.1 22.88C33.11 18.48 30.91 15.07 27.5 12.54C24.09 10.01 20.57 8.69 17.16 8.69C14.96 8.69 13.2 9.35 11.88 10.67C9.79003 12.65 8.80003 15.84 8.80003 20.35V44.22Z" fill="var(--fill-0, #E4E4E1)"/>
</g>
</svg>
