<svg preserveAspectRatio="none" width="100%" height="100%" overflow="visible" style="display: block;" viewBox="0 0 97.68 87.7797" fill="none" xmlns="http://www.w3.org/2000/svg">
<g id="04">
<path id="Vector" d="M90.42 87.7797L81.62 84.9197V60.4997L55 51.9197V43.9997L79.42 3.40967L88.99 6.48967L64.68 47.0797L81.62 52.5797V32.2297L90.42 35.0897V55.4397L97.68 57.8597V65.7797L90.42 63.3597V87.7797Z" fill="var(--fill-0, #E4E4E1)"/>
<path id="Vector_2" d="M30.14 85.8C25.3 85.8 20.13 84.15 14.63 80.96C9.79 78.21 6.05 74.25 3.41 69.08C1.1 64.9 0 59.95 0 54.34V17.49C0 11.88 1.1 7.59 3.41 4.62C5.72 1.54 9.02 0 13.2 0C15.73 0 18.59 0.549999 21.78 1.65C27.39 3.52 32.01 6.27 35.42 9.9C40.81 15.73 43.56 22.88 43.56 31.57V68.42C43.56 74.03 42.46 78.32 40.26 81.07C37.84 84.26 34.43 85.8 30.14 85.8ZM26.4 77.22C28.6 77.22 30.36 76.56 31.68 75.24C33.77 73.26 34.76 70.07 34.76 65.56V41.69L8.8 53.9C8.8 57.97 9.02 60.94 9.46 62.92C10.45 67.43 12.76 70.95 16.39 73.48C19.69 75.9 22.99 77.22 26.4 77.22ZM8.8 44.22L34.76 32.01C34.76 27.94 34.54 24.86 34.1 22.88C33.11 18.48 30.91 15.07 27.5 12.54C24.09 10.01 20.57 8.69 17.16 8.69C14.96 8.69 13.2 9.35 11.88 10.67C9.79 12.65 8.8 15.84 8.8 20.35V44.22Z" fill="var(--fill-0, #E4E4E1)"/>
</g>
</svg>
