<svg preserveAspectRatio="none" width="100%" height="100%" overflow="visible" style="display: block;" viewBox="0 0 99.44 85.9101" fill="none" xmlns="http://www.w3.org/2000/svg">
<g id="03">
<path id="Vector" d="M85.58 85.91C83.05 85.91 80.19 85.36 77.11 84.37C70.4 82.17 65.12 78.76 61.27 74.14C56.98 68.97 54.78 63.14 54.78 56.65L63.58 59.51C63.58 61.82 64.13 64.24 65.34 66.77C67.54 71.39 71.5 74.58 77.11 76.45C78.98 77.11 80.63 77.33 82.17 77.33C84.04 77.33 85.69 76.89 87.01 75.9C89.43 74.14 90.64 71.17 90.64 66.88C90.64 64.35 90.09 61.6 88.88 58.85C87.67 56.1 86.02 53.68 83.93 51.37C81.73 49.06 79.31 47.3 76.78 46.09C74.25 44.88 71.61 43.89 69.08 43.01V35.09C72.93 36.41 76.23 37.07 78.76 37.07C82.61 37.07 85.47 35.53 87.34 32.45C88.33 30.58 88.88 28.49 88.88 26.07C88.88 22.44 87.89 19.03 85.91 16.06C83.82 13.09 80.96 10.89 77.11 9.68C75.68 9.24 74.25 9.01999 72.82 9.01999C67.87 9.01999 65.34 11.99 65.34 17.93L56.54 15.07C56.54 8.8 58.52 4.51 62.37 2.09C64.24 0.879996 66.55 0.329994 69.08 0.329994C71.5 0.329994 74.14 0.769994 77.11 1.75999C83.6 3.84999 88.55 7.37 92.07 12.1C95.81 17.27 97.68 22.77 97.68 28.82C97.68 31.57 97.13 34.1 96.14 36.41C95.04 38.72 93.5 40.48 91.41 41.69C89.32 43.01 87.01 43.78 84.48 44C87.34 45.87 89.98 48.29 92.29 51.15C94.6 54.01 96.47 57.09 97.68 60.39C98.89 63.69 99.44 66.88 99.44 69.85C99.44 80.52 94.82 85.91 85.58 85.91Z" fill="var(--fill-0, #E4E4E1)"/>
<path id="Vector_2" d="M30.14 85.8C25.3 85.8 20.13 84.15 14.63 80.96C9.79003 78.21 6.05003 74.25 3.41003 69.08C1.10003 64.9 2.95639e-05 59.95 2.95639e-05 54.34V17.49C2.95639e-05 11.88 1.10003 7.59 3.41003 4.62C5.72003 1.54 9.02003 0 13.2 0C15.73 0 18.59 0.549999 21.78 1.65C27.39 3.52 32.01 6.27 35.42 9.9C40.81 15.73 43.56 22.88 43.56 31.57V68.42C43.56 74.03 42.46 78.32 40.26 81.07C37.84 84.26 34.43 85.8 30.14 85.8ZM26.4 77.22C28.6 77.22 30.36 76.56 31.68 75.24C33.77 73.26 34.76 70.07 34.76 65.56V41.69L8.80003 53.9C8.80003 57.97 9.02003 60.94 9.46003 62.92C10.45 67.43 12.76 70.95 16.39 73.48C19.69 75.9 22.99 77.22 26.4 77.22ZM8.80003 44.22L34.76 32.01C34.76 27.94 34.54 24.86 34.1 22.88C33.11 18.48 30.91 15.07 27.5 12.54C24.09 10.01 20.57 8.69 17.16 8.69C14.96 8.69 13.2 9.35 11.88 10.67C9.79003 12.65 8.80003 15.84 8.80003 20.35V44.22Z" fill="var(--fill-0, #E4E4E1)"/>
</g>
</svg>
