<svg preserveAspectRatio="none" width="100%" height="100%" overflow="visible" style="display: block;" viewBox="0 0 98.12 90.2" fill="none" xmlns="http://www.w3.org/2000/svg">
<g id="02">
<path id="Vector" d="M97.68 90.2L55.88 76.56C55.88 73.59 55.99 70.62 56.32 67.65C57.31 56.43 63.47 48.73 74.91 44.44C77.33 43.45 79.75 42.46 82.06 41.25C86.9 38.72 89.32 34.32 89.32 27.94C89.32 23.65 88.33 19.91 86.46 16.83C84.26 13.42 81.07 11 76.89 9.57C75.13 9.01999 73.48 8.69 72.05 8.69C69.3 8.69 67.32 9.79 66 11.88C65.01 13.53 64.46 15.62 64.46 17.93L55.66 15.07C55.66 8.69 57.64 4.28999 61.71 1.75999C63.58 0.659996 65.78 0.109997 68.42 0.109997C70.84 0.109997 73.7 0.659997 76.89 1.65C83.6 3.85 88.88 7.48 92.62 12.54C96.25 17.71 98.12 23.76 98.12 30.8C98.12 34.32 97.46 37.51 96.03 40.37C94.6 43.34 92.62 45.54 90.09 47.19C87.56 48.84 84.81 50.16 81.95 51.26C78.98 52.36 76.34 53.79 73.81 55.55C71.28 57.31 69.3 59.62 67.87 62.37C66.33 65.12 65.34 68.2 65.01 71.61L97.68 82.28V90.2Z" fill="var(--fill-0, #E4E4E1)"/>
<path id="Vector_2" d="M30.14 85.8C25.3 85.8 20.13 84.15 14.63 80.96C9.79003 78.21 6.05003 74.25 3.41003 69.08C1.10003 64.9 2.95639e-05 59.95 2.95639e-05 54.34V17.49C2.95639e-05 11.88 1.10003 7.59 3.41003 4.62C5.72003 1.54 9.02003 0 13.2 0C15.73 0 18.59 0.549999 21.78 1.65C27.39 3.52 32.01 6.27 35.42 9.9C40.81 15.73 43.56 22.88 43.56 31.57V68.42C43.56 74.03 42.46 78.32 40.26 81.07C37.84 84.26 34.43 85.8 30.14 85.8ZM26.4 77.22C28.6 77.22 30.36 76.56 31.68 75.24C33.77 73.26 34.76 70.07 34.76 65.56V41.69L8.80003 53.9C8.80003 57.97 9.02003 60.94 9.46003 62.92C10.45 67.43 12.76 70.95 16.39 73.48C19.69 75.9 22.99 77.22 26.4 77.22ZM8.80003 44.22L34.76 32.01C34.76 27.94 34.54 24.86 34.1 22.88C33.11 18.48 30.91 15.07 27.5 12.54C24.09 10.01 20.57 8.69 17.16 8.69C14.96 8.69 13.2 9.35 11.88 10.67C9.79003 12.65 8.80003 15.84 8.80003 20.35V44.22Z" fill="var(--fill-0, #E4E4E1)"/>
</g>
</svg>
